<?xml version="1.0" encoding="UTF-8"?>
<!DOCTYPE score-partwise PUBLIC "-//Recordare//DTD MusicXML 3.0 Partwise//EN" "http://www.musicxml.org/dtds/partwise.dtd">
<score-partwise>
 <identification>
  <encoding>
   <software>MuseScore 2.0.2</software>
   <encoding-date>2019-09-17</encoding-date>
   <supports element="accidental" type="yes"/>
   <supports element="beam" type="yes"/>
   <supports element="print" attribute="new-page" type="yes" value="yes"/>
   <supports element="print" attribute="new-system" type="yes" value="yes"/>
   <supports element="stem" type="yes"/>
  </encoding>
 </identification>
 <defaults>
  <scaling>
   <millimeters>7.05556</millimeters>
   <tenths>40</tenths>
  </scaling>
  <page-layout>
   <page-height>1683.78</page-height>
   <page-width>1190.55</page-width>
   <page-margins type="even">
    <left-margin>56.6929</left-margin>
    <right-margin>56.6929</right-margin>
    <top-margin>56.6929</top-margin>
    <bottom-margin>113.386</bottom-margin>
   </page-margins>
   <page-margins type="odd">
    <left-margin>56.6929</left-margin>
    <right-margin>56.6929</right-margin>
    <top-margin>56.6929</top-margin>
    <bottom-margin>113.386</bottom-margin>
   </page-margins>
  </page-layout>
  <word-font font-family="FreeSerif" font-size="10"/>
  <lyric-font font-family="FreeSerif" font-size="11"/>
 </defaults>
 <part-list>
  <score-part id="P1">
   <part-name>Pf</part-name>
   <part-abbreviation>Pno.</part-abbreviation>
   <score-instrument id="P1-I1">
    <instrument-name>Pf</instrument-name>
   </score-instrument>
   <midi-device id="P1-I1" port="1"></midi-device>
   <midi-instrument id="P1-I1">
    <midi-channel>1</midi-channel>
    <midi-program>1</midi-program>
    <volume>78.7402</volume>
    <pan>0</pan>
   </midi-instrument>
  </score-part>
  <score-part id="P3">
   <part-name>Pf</part-name>
   <part-abbreviation>Pno.</part-abbreviation>
   <score-instrument id="P3-I1">
    <instrument-name>Pf</instrument-name>
   </score-instrument>
   <midi-device id="P3-I1" port="1"></midi-device>
   <midi-instrument id="P3-I1">
    <midi-channel>3</midi-channel>
    <midi-program>1</midi-program>
    <volume>78.7402</volume>
    <pan>0</pan>
   </midi-instrument>
  </score-part>
 </part-list>
 <part id="P1">
  <measure number="1" width="313.35">
   <attributes>
    <divisions>12</divisions>
    <key>
     <fifths>-5</fifths>
    </key>
    <time>
     <beats>4</beats>
     <beat-type>4</beat-type>
    </time>
    <clef>
     <sign>G</sign>
     <line>2</line>
    </clef>
   </attributes>
   <direction placement="above">
    <direction-type>
     <metronome parentheses="no">
      <beat-unit>quarter</beat-unit>
      <per-minute>50</per-minute>
     </metronome>
    </direction-type>
    <sound tempo="50"/>
   </direction>
   <note>
    <rest/>
    <duration>12</duration>
    <voice>1</voice>
    <type>quarter</type>
   </note>
   <note>
    <rest/>
    <duration>6</duration>
    <voice>1</voice>
    <type>eighth</type>
   </note>
   <note default-x="191.47" default-y="-25.00" dynamics="88.89">
    <pitch>
     <step>A</step>
     <alter>-1</alter>
     <octave>4</octave>
    </pitch>
    <duration>6</duration>
    <tie type="start"/>
    <voice>1</voice>
    <type>eighth</type>
    <notations>
     <tied type="start"/>
    </notations>
   </note>
   <note default-x="217.52" default-y="-25.00" dynamics="88.89">
    <pitch>
     <step>A</step>
     <alter>-1</alter>
     <octave>4</octave>
    </pitch>
    <duration>6</duration>
    <tie type="stop"/>
    <voice>1</voice>
    <type>eighth</type>
    <notations>
     <tied type="stop"/>
    </notations>
   </note>
   <note default-x="247.80" default-y="-25.00" dynamics="88.89">
    <pitch>
     <step>A</step>
     <alter>-1</alter>
     <octave>4</octave>
    </pitch>
    <duration>18</duration>
    <voice>1</voice>
    <type>quarter</type>
    <dot/>
   </note>
   <note default-x="247.80" default-y="0.00" dynamics="88.89">
    <chord/>
    <pitch>
     <step>F</step>
     <octave>5</octave>
    </pitch>
    <duration>18</duration>
    <voice>1</voice>
    <type>quarter</type>
    <dot/>
   </note>
   <note default-x="247.80" default-y="10.00" dynamics="88.89">
    <chord/>
    <pitch>
     <step>A</step>
     <alter>-1</alter>
     <octave>5</octave>
    </pitch>
    <duration>18</duration>
    <voice>1</voice>
    <type>quarter</type>
    <dot/>
   </note>
   <backup>
    <duration>48</duration>
   </backup>
   <forward>
    <duration>48</duration>
    <voice>2</voice>
   </forward>
  </measure>
  <measure number="2" width="204.24">
   <note default-x="12.94" default-y="-10.00" dynamics="88.89">
    <pitch>
     <step>D</step>
     <alter>-1</alter>
     <octave>5</octave>
    </pitch>
    <duration>12</duration>
    <voice>1</voice>
    <type>quarter</type>
   </note>
   <note default-x="12.94" default-y="0.00" dynamics="88.89">
    <chord/>
    <pitch>
     <step>F</step>
     <octave>5</octave>
    </pitch>
    <duration>12</duration>
    <voice>1</voice>
    <type>quarter</type>
   </note>
   <note>
    <rest/>
    <duration>4</duration>
    <voice>1</voice>
    <type>eighth</type>
    <time-modification>
     <actual-notes>3</actual-notes>
     <normal-notes>2</normal-notes>
    </time-modification>
    <notations>
     <tuplet type="start" bracket="yes"/>
    </notations>
   </note>
   <note default-x="87.56" default-y="-5.00" dynamics="88.89">
    <pitch>
     <step>E</step>
     <alter>-1</alter>
     <octave>5</octave>
    </pitch>
    <duration>4</duration>
    <voice>1</voice>
    <type>eighth</type>
    <time-modification>
     <actual-notes>3</actual-notes>
     <normal-notes>2</normal-notes>
    </time-modification>
    <beam number="1">begin</beam>
   </note>
   <note default-x="112.84" default-y="0.00" dynamics="88.89">
    <pitch>
     <step>F</step>
     <octave>5</octave>
    </pitch>
    <duration>4</duration>
    <voice>1</voice>
    <type>eighth</type>
    <time-modification>
     <actual-notes>3</actual-notes>
     <normal-notes>2</normal-notes>
    </time-modification>
    <beam number="1">end</beam>
    <notations>
     <tuplet type="stop"/>
    </notations>
   </note>
   <note default-x="137.74" default-y="-5.00" dynamics="88.89">
    <pitch>
     <step>E</step>
     <alter>-1</alter>
     <octave>5</octave>
    </pitch>
    <duration>24</duration>
    <voice>1</voice>
    <type>half</type>
   </note>
   <backup>
    <duration>48</duration>
   </backup>
   <forward>
    <duration>48</duration>
    <voice>2</voice>
   </forward>
  </measure>
  <measure number="3" width="284.99">
   <note>
    <rest/>
    <duration>4</duration>
    <voice>1</voice>
    <type>eighth</type>
    <time-modification>
     <actual-notes>3</actual-notes>
     <normal-notes>2</normal-notes>
    </time-modification>
    <notations>
     <tuplet type="start" bracket="yes"/>
    </notations>
   </note>
   <note default-x="35.62" default-y="-10.00" dynamics="88.89">
    <pitch>
     <step>D</step>
     <alter>-1</alter>
     <octave>5</octave>
    </pitch>
    <duration>4</duration>
    <voice>1</voice>
    <type>eighth</type>
    <time-modification>
     <actual-notes>3</actual-notes>
     <normal-notes>2</normal-notes>
    </time-modification>
    <beam number="1">begin</beam>
   </note>
   <note default-x="59.10" default-y="-5.00" dynamics="88.89">
    <pitch>
     <step>E</step>
     <alter>-1</alter>
     <octave>5</octave>
    </pitch>
    <duration>4</duration>
    <voice>1</voice>
    <type>eighth</type>
    <time-modification>
     <actual-notes>3</actual-notes>
     <normal-notes>2</normal-notes>
    </time-modification>
    <beam number="1">end</beam>
    <notations>
     <tuplet type="stop"/>
    </notations>
   </note>
   <note default-x="82.58" default-y="-10.00" dynamics="88.89">
    <pitch>
     <step>D</step>
     <alter>-1</alter>
     <octave>5</octave>
    </pitch>
    <duration>6</duration>
    <voice>1</voice>
    <type>eighth</type>
    <beam number="1">begin</beam>
   </note>
   <note default-x="111.21" default-y="0.00" dynamics="88.89">
    <pitch>
     <step>F</step>
     <octave>5</octave>
    </pitch>
    <duration>6</duration>
    <tie type="start"/>
    <voice>1</voice>
    <type>eighth</type>
    <beam number="1">end</beam>
    <notations>
     <tied type="start"/>
    </notations>
   </note>
   <note default-x="139.83" default-y="0.00" dynamics="88.89">
    <pitch>
     <step>F</step>
     <octave>5</octave>
    </pitch>
    <duration>6</duration>
    <tie type="stop"/>
    <voice>1</voice>
    <type>eighth</type>
    <beam number="1">begin</beam>
    <notations>
     <tied type="stop"/>
    </notations>
   </note>
   <note default-x="168.46" default-y="-10.00" dynamics="88.89">
    <pitch>
     <step>D</step>
     <alter>-1</alter>
     <octave>5</octave>
    </pitch>
    <duration>6</duration>
    <voice>1</voice>
    <type>eighth</type>
    <beam number="1">end</beam>
   </note>
   <note>
    <rest/>
    <duration>3</duration>
    <voice>1</voice>
    <type>16th</type>
   </note>
   <note default-x="216.91" default-y="-15.00" dynamics="88.89">
    <pitch>
     <step>C</step>
     <octave>5</octave>
    </pitch>
    <duration>3</duration>
    <voice>1</voice>
    <type>16th</type>
    <beam number="1">begin</beam>
    <beam number="2">forward hook</beam>
   </note>
   <note default-x="236.74" default-y="-20.00" dynamics="88.89">
    <pitch>
     <step>B</step>
     <alter>-1</alter>
     <octave>4</octave>
    </pitch>
    <duration>4</duration>
    <voice>1</voice>
    <type>eighth</type>
    <time-modification>
     <actual-notes>3</actual-notes>
     <normal-notes>2</normal-notes>
     <normal-type>16th</normal-type>
    </time-modification>
    <beam number="1">continue</beam>
    <notations>
     <tuplet type="start" bracket="no"/>
    </notations>
   </note>
   <note default-x="236.74" default-y="-10.00" dynamics="88.89">
    <chord/>
    <pitch>
     <step>D</step>
     <alter>-1</alter>
     <octave>5</octave>
    </pitch>
    <duration>4</duration>
    <voice>1</voice>
    <type>eighth</type>
    <time-modification>
     <actual-notes>3</actual-notes>
     <normal-notes>2</normal-notes>
     <normal-type>16th</normal-type>
    </time-modification>
   </note>
   <note default-x="260.22" default-y="-15.00" dynamics="88.89">
    <pitch>
     <step>C</step>
     <octave>5</octave>
    </pitch>
    <duration>2</duration>
    <voice>1</voice>
    <type>16th</type>
    <time-modification>
     <actual-notes>3</actual-notes>
     <normal-notes>2</normal-notes>
     <normal-type>16th</normal-type>
    </time-modification>
    <beam number="1">end</beam>
    <beam number="2">backward hook</beam>
    <notations>
     <tuplet type="stop"/>
    </notations>
   </note>
   <backup>
    <duration>48</duration>
   </backup>
   <forward>
    <duration>48</duration>
    <voice>2</voice>
   </forward>
  </measure>
  <measure number="4" width="220.58">
   <note>
    <rest/>
    <duration>24</duration>
    <voice>1</voice>
    <type>half</type>
   </note>
   <note>
    <rest/>
    <duration>4</duration>
    <voice>1</voice>
    <type>eighth</type>
    <time-modification>
     <actual-notes>3</actual-notes>
     <normal-notes>2</normal-notes>
    </time-modification>
    <notations>
     <tuplet type="start" bracket="yes"/>
    </notations>
   </note>
   <note default-x="98.18" default-y="-20.00" dynamics="88.89">
    <pitch>
     <step>B</step>
     <alter>-1</alter>
     <octave>4</octave>
    </pitch>
    <duration>4</duration>
    <voice>1</voice>
    <type>eighth</type>
    <time-modification>
     <actual-notes>3</actual-notes>
     <normal-notes>2</normal-notes>
    </time-modification>
    <beam number="1">begin</beam>
   </note>
   <note default-x="122.34" default-y="-15.00" dynamics="88.89">
    <pitch>
     <step>C</step>
     <octave>5</octave>
    </pitch>
    <duration>4</duration>
    <voice>1</voice>
    <type>eighth</type>
    <time-modification>
     <actual-notes>3</actual-notes>
     <normal-notes>2</normal-notes>
    </time-modification>
    <beam number="1">end</beam>
    <notations>
     <tuplet type="stop"/>
    </notations>
   </note>
   <note default-x="146.50" default-y="-20.00" dynamics="88.89">
    <pitch>
     <step>B</step>
     <alter>-1</alter>
     <octave>4</octave>
    </pitch>
    <duration>4</duration>
    <voice>1</voice>
    <type>eighth</type>
    <time-modification>
     <actual-notes>3</actual-notes>
     <normal-notes>2</normal-notes>
    </time-modification>
    <beam number="1">begin</beam>
    <notations>
     <tuplet type="start" bracket="no"/>
    </notations>
   </note>
   <note default-x="170.66" default-y="-5.00" dynamics="88.89">
    <pitch>
     <step>E</step>
     <alter>-1</alter>
     <octave>5</octave>
    </pitch>
    <duration>4</duration>
    <voice>1</voice>
    <type>eighth</type>
    <time-modification>
     <actual-notes>3</actual-notes>
     <normal-notes>2</normal-notes>
    </time-modification>
    <beam number="1">continue</beam>
   </note>
   <note default-x="194.82" default-y="-20.00" dynamics="88.89">
    <pitch>
     <step>B</step>
     <alter>-1</alter>
     <octave>4</octave>
    </pitch>
    <duration>4</duration>
    <voice>1</voice>
    <type>eighth</type>
    <time-modification>
     <actual-notes>3</actual-notes>
     <normal-notes>2</normal-notes>
    </time-modification>
    <beam number="1">end</beam>
    <notations>
     <tuplet type="stop"/>
    </notations>
   </note>
   <backup>
    <duration>48</duration>
   </backup>
   <forward>
    <duration>48</duration>
    <voice>2</voice>
   </forward>
  </measure>
  <measure number="5" width="312.80">
   <note default-x="105.45" default-y="-40.00" dynamics="88.89">
    <pitch>
     <step>E</step>
     <alter>-1</alter>
     <octave>4</octave>
    </pitch>
    <duration>4</duration>
    <voice>1</voice>
    <type>eighth</type>
    <time-modification>
     <actual-notes>3</actual-notes>
     <normal-notes>2</normal-notes>
    </time-modification>
    <beam number="1">begin</beam>
    <notations>
     <tuplet type="start" bracket="no"/>
    </notations>
   </note>
   <note default-x="105.45" default-y="-30.00" dynamics="88.89">
    <chord/>
    <pitch>
     <step>G</step>
     <alter>-1</alter>
     <octave>4</octave>
    </pitch>
    <duration>4</duration>
    <voice>1</voice>
    <type>eighth</type>
    <time-modification>
     <actual-notes>3</actual-notes>
     <normal-notes>2</normal-notes>
    </time-modification>
   </note>
   <note default-x="117.33" default-y="-25.00" dynamics="88.89">
    <chord/>
    <pitch>
     <step>A</step>
     <alter>-1</alter>
     <octave>4</octave>
    </pitch>
    <duration>4</duration>
    <voice>1</voice>
    <type>eighth</type>
    <time-modification>
     <actual-notes>3</actual-notes>
     <normal-notes>2</normal-notes>
    </time-modification>
   </note>
   <note default-x="133.00" default-y="-20.00" dynamics="88.89">
    <pitch>
     <step>B</step>
     <alter>-1</alter>
     <octave>4</octave>
    </pitch>
    <duration>4</duration>
    <voice>1</voice>
    <type>eighth</type>
    <time-modification>
     <actual-notes>3</actual-notes>
     <normal-notes>2</normal-notes>
    </time-modification>
    <beam number="1">continue</beam>
   </note>
   <note default-x="153.02" default-y="-25.00" dynamics="88.89">
    <pitch>
     <step>A</step>
     <alter>-1</alter>
     <octave>4</octave>
    </pitch>
    <duration>4</duration>
    <voice>1</voice>
    <type>eighth</type>
    <time-modification>
     <actual-notes>3</actual-notes>
     <normal-notes>2</normal-notes>
    </time-modification>
    <beam number="1">end</beam>
    <notations>
     <tuplet type="stop"/>
    </notations>
   </note>
   <note>
    <rest/>
    <duration>4</duration>
    <voice>1</voice>
    <type>eighth</type>
    <time-modification>
     <actual-notes>3</actual-notes>
     <normal-notes>2</normal-notes>
    </time-modification>
    <notations>
     <tuplet type="start" bracket="yes"/>
    </notations>
   </note>
   <note default-x="193.05" default-y="-30.00" dynamics="88.89">
    <pitch>
     <step>G</step>
     <alter>-1</alter>
     <octave>4</octave>
    </pitch>
    <duration>4</duration>
    <voice>1</voice>
    <type>eighth</type>
    <time-modification>
     <actual-notes>3</actual-notes>
     <normal-notes>2</normal-notes>
    </time-modification>
    <beam number="1">begin</beam>
   </note>
   <note default-x="213.07" default-y="-25.00" dynamics="88.89">
    <pitch>
     <step>A</step>
     <alter>-1</alter>
     <octave>4</octave>
    </pitch>
    <duration>4</duration>
    <voice>1</voice>
    <type>eighth</type>
    <time-modification>
     <actual-notes>3</actual-notes>
     <normal-notes>2</normal-notes>
    </time-modification>
    <beam number="1">end</beam>
    <notations>
     <tuplet type="stop"/>
    </notations>
   </note>
   <note default-x="233.09" default-y="-30.00" dynamics="88.89">
    <pitch>
     <step>G</step>
     <alter>-1</alter>
     <octave>4</octave>
    </pitch>
    <duration>12</duration>
    <voice>1</voice>
    <type>quarter</type>
   </note>
   <note default-x="272.15" default-y="-35.00" dynamics="88.89">
    <pitch>
     <step>F</step>
     <octave>4</octave>
    </pitch>
    <duration>12</duration>
    <voice>1</voice>
    <type>quarter</type>
   </note>
   <note default-x="272.15" default-y="-25.00" dynamics="88.89">
    <chord/>
    <pitch>
     <step>A</step>
     <octave>4</octave>
    </pitch>
    <duration>12</duration>
    <voice>1</voice>
    <type>quarter</type>
    <accidental>natural</accidental>
   </note>
   <backup>
    <duration>48</duration>
   </backup>
   <forward>
    <duration>48</duration>
    <voice>2</voice>
   </forward>
  </measure>
  <measure number="6" width="320.91">
   <note>
    <rest/>
    <duration>4</duration>
    <voice>1</voice>
    <type>eighth</type>
    <time-modification>
     <actual-notes>3</actual-notes>
     <normal-notes>2</normal-notes>
    </time-modification>
    <notations>
     <tuplet type="start" bracket="yes"/>
    </notations>
   </note>
   <note default-x="37.56" default-y="-35.00" dynamics="88.89">
    <pitch>
     <step>F</step>
     <octave>4</octave>
    </pitch>
    <duration>4</duration>
    <voice>1</voice>
    <type>eighth</type>
    <time-modification>
     <actual-notes>3</actual-notes>
     <normal-notes>2</normal-notes>
    </time-modification>
    <beam number="1">begin</beam>
   </note>
   <note default-x="61.06" default-y="-30.00" dynamics="88.89">
    <pitch>
     <step>G</step>
     <alter>-1</alter>
     <octave>4</octave>
    </pitch>
    <duration>4</duration>
    <voice>1</voice>
    <type>eighth</type>
    <time-modification>
     <actual-notes>3</actual-notes>
     <normal-notes>2</normal-notes>
    </time-modification>
    <beam number="1">end</beam>
    <notations>
     <tuplet type="stop"/>
    </notations>
   </note>
   <note default-x="94.34" default-y="-35.00" dynamics="88.89">
    <pitch>
     <step>F</step>
     <octave>4</octave>
    </pitch>
    <duration>4</duration>
    <voice>1</voice>
    <type>eighth</type>
    <time-modification>
     <actual-notes>3</actual-notes>
     <normal-notes>2</normal-notes>
    </time-modification>
    <beam number="1">begin</beam>
    <notations>
     <tuplet type="start" bracket="no"/>
    </notations>
   </note>
   <note default-x="117.84" default-y="-20.00" dynamics="88.89">
    <pitch>
     <step>B</step>
     <alter>-1</alter>
     <octave>4</octave>
    </pitch>
    <duration>4</duration>
    <voice>1</voice>
    <type>eighth</type>
    <time-modification>
     <actual-notes>3</actual-notes>
     <normal-notes>2</normal-notes>
    </time-modification>
    <beam number="1">continue</beam>
   </note>
   <note default-x="141.34" default-y="-35.00" dynamics="88.89">
    <pitch>
     <step>F</step>
     <octave>4</octave>
    </pitch>
    <duration>4</duration>
    <voice>1</voice>
    <type>eighth</type>
    <time-modification>
     <actual-notes>3</actual-notes>
     <normal-notes>2</normal-notes>
    </time-modification>
    <beam number="1">end</beam>
    <notations>
     <tuplet type="stop"/>
    </notations>
   </note>
   <note default-x="164.84" default-y="-40.00" dynamics="88.89">
    <pitch>
     <step>E</step>
     <alter>-1</alter>
     <octave>4</octave>
    </pitch>
    <duration>4</duration>
    <voice>1</voice>
    <type>eighth</type>
    <time-modification>
     <actual-notes>3</actual-notes>
     <normal-notes>2</normal-notes>
    </time-modification>
    <beam number="1">begin</beam>
    <notations>
     <tuplet type="start" bracket="no"/>
    </notations>
   </note>
   <note default-x="188.34" default-y="-35.00" dynamics="88.89">
    <pitch>
     <step>F</step>
     <octave>4</octave>
    </pitch>
    <duration>4</duration>
    <voice>1</voice>
    <type>eighth</type>
    <time-modification>
     <actual-notes>3</actual-notes>
     <normal-notes>2</normal-notes>
    </time-modification>
    <beam number="1">continue</beam>
   </note>
   <note default-x="211.84" default-y="-40.00" dynamics="88.89">
    <pitch>
     <step>E</step>
     <alter>-1</alter>
     <octave>4</octave>
    </pitch>
    <duration>4</duration>
    <voice>1</voice>
    <type>eighth</type>
    <time-modification>
     <actual-notes>3</actual-notes>
     <normal-notes>2</normal-notes>
    </time-modification>
    <beam number="1">end</beam>
    <notations>
     <tuplet type="stop"/>
    </notations>
   </note>
   <note>
    <rest/>
    <duration>4</duration>
    <voice>1</voice>
    <type>eighth</type>
    <time-modification>
     <actual-notes>3</actual-notes>
     <normal-notes>2</normal-notes>
    </time-modification>
    <notations>
     <tuplet type="start" bracket="yes"/>
    </notations>
   </note>
   <note default-x="263.03" default-y="-45.00" dynamics="88.89">
    <pitch>
     <step>D</step>
     <alter>-1</alter>
     <octave>4</octave>
    </pitch>
    <duration>4</duration>
    <voice>1</voice>
    <type>eighth</type>
    <time-modification>
     <actual-notes>3</actual-notes>
     <normal-notes>2</normal-notes>
    </time-modification>
    <beam number="1">begin</beam>
   </note>
   <note default-x="286.53" default-y="-40.00" dynamics="88.89">
    <pitch>
     <step>E</step>
     <alter>-1</alter>
     <octave>4</octave>
    </pitch>
    <duration>4</duration>
    <voice>1</voice>
    <type>eighth</type>
    <time-modification>
     <actual-notes>3</actual-notes>
     <normal-notes>2</normal-notes>
    </time-modification>
    <beam number="1">end</beam>
    <notations>
     <tuplet type="stop"/>
    </notations>
   </note>
   <backup>
    <duration>48</duration>
   </backup>
   <forward>
    <duration>48</duration>
    <voice>2</voice>
   </forward>
  </measure>
  <measure number="7" width="130.07">
   <note default-x="12.00" default-y="-45.00" dynamics="88.89">
    <pitch>
     <step>D</step>
     <alter>-1</alter>
     <octave>4</octave>
    </pitch>
    <duration>12</duration>
    <voice>1</voice>
    <type>quarter</type>
   </note>
   <note>
    <rest/>
    <duration>12</duration>
    <voice>1</voice>
    <type>quarter</type>
   </note>
   <note>
    <rest/>
    <duration>24</duration>
    <voice>1</voice>
    <type>half</type>
   </note>
   <backup>
    <duration>48</duration>
   </backup>
   <forward>
    <duration>48</duration>
    <voice>2</voice>
   </forward>
  </measure>
  <measure number="8" width="129.14">
   <note>
    <rest/>
    <duration>12</duration>
    <voice>1</voice>
    <type>quarter</type>
   </note>
   <note default-x="44.77" default-y="20.00" dynamics="88.89">
    <pitch>
     <step>C</step>
     <octave>6</octave>
    </pitch>
    <duration>12</duration>
    <voice>1</voice>
    <type>quarter</type>
   </note>
   <note>
    <rest/>
    <duration>24</duration>
    <voice>1</voice>
    <type>half</type>
   </note>
   <backup>
    <duration>48</duration>
   </backup>
   <forward>
    <duration>12</duration>
    <voice>2</voice>
   </forward>
   <note default-x="44.77" default-y="-85.00" dynamics="88.89">
    <pitch>
     <step>C</step>
     <octave>6</octave>
    </pitch>
    <duration>12</duration>
    <voice>2</voice>
    <type>quarter</type>
   </note>
   <forward>
    <duration>24</duration>
    <voice>2</voice>
   </forward>
  </measure>
  <measure number="9" width="130.07">
   <note>
    <rest/>
    <duration>48</duration>
    <voice>1</voice>
   </note>
   <backup>
    <duration>48</duration>
   </backup>
   <forward>
    <duration>48</duration>
    <voice>2</voice>
   </forward>
  </measure>
 </part>
 <part id="P3">
  <measure number="1" width="313.35">
   <attributes>
    <divisions>12</divisions>
    <key>
     <fifths>-5</fifths>
    </key>
    <time>
     <beats>4</beats>
     <beat-type>4</beat-type>
    </time>
    <clef>
     <sign>G</sign>
     <line>2</line>
    </clef>
   </attributes>
   <note>
    <rest/>
    <duration>12</duration>
    <voice>1</voice>
    <type>quarter</type>
   </note>
   <note>
    <rest/>
    <duration>6</duration>
    <voice>1</voice>
    <type>eighth</type>
   </note>
   <note default-x="191.47" default-y="-245.00" dynamics="88.89">
    <pitch>
     <step>F</step>
     <octave>4</octave>
    </pitch>
    <duration>6</duration>
    <tie type="start"/>
    <voice>1</voice>
    <type>eighth</type>
    <notations>
     <tied type="start"/>
    </notations>
   </note>
   <note default-x="217.52" default-y="-245.00" dynamics="88.89">
    <pitch>
     <step>F</step>
     <octave>4</octave>
    </pitch>
    <duration>6</duration>
    <tie type="stop"/>
    <voice>1</voice>
    <type>eighth</type>
    <notations>
     <tied type="stop"/>
    </notations>
   </note>
   <note>
    <rest/>
    <duration>6</duration>
    <voice>1</voice>
    <type>eighth</type>
   </note>
   <note>
    <rest/>
    <duration>12</duration>
    <voice>1</voice>
    <type>quarter</type>
   </note>
   <backup>
    <duration>48</duration>
   </backup>
   <forward>
    <duration>48</duration>
    <voice>2</voice>
   </forward>
  </measure>
  <measure number="2" width="204.24">
   <note default-x="12.94" default-y="-235.00" dynamics="88.89">
    <pitch>
     <step>A</step>
     <alter>-1</alter>
     <octave>4</octave>
    </pitch>
    <duration>12</duration>
    <voice>1</voice>
    <type>quarter</type>
   </note>
   <note default-x="62.27" default-y="-235.00" dynamics="88.89">
    <pitch>
     <step>A</step>
     <octave>4</octave>
    </pitch>
    <duration>4</duration>
    <voice>1</voice>
    <type>eighth</type>
    <accidental>natural</accidental>
    <time-modification>
     <actual-notes>3</actual-notes>
     <normal-notes>2</normal-notes>
    </time-modification>
    <beam number="1">begin</beam>
    <notations>
     <tuplet type="start" bracket="no"/>
    </notations>
   </note>
   <note default-x="87.56" default-y="-225.00" dynamics="88.89">
    <pitch>
     <step>C</step>
     <octave>5</octave>
    </pitch>
    <duration>4</duration>
    <voice>1</voice>
    <type>eighth</type>
    <time-modification>
     <actual-notes>3</actual-notes>
     <normal-notes>2</normal-notes>
    </time-modification>
    <beam number="1">continue</beam>
   </note>
   <note default-x="112.84" default-y="-220.00" dynamics="88.89">
    <pitch>
     <step>D</step>
     <alter>-1</alter>
     <octave>5</octave>
    </pitch>
    <duration>4</duration>
    <voice>1</voice>
    <type>eighth</type>
    <time-modification>
     <actual-notes>3</actual-notes>
     <normal-notes>2</normal-notes>
    </time-modification>
    <beam number="1">end</beam>
    <notations>
     <tuplet type="stop"/>
    </notations>
   </note>
   <note default-x="137.74" default-y="-240.00" dynamics="88.89">
    <pitch>
     <step>G</step>
     <alter>-1</alter>
     <octave>4</octave>
    </pitch>
    <duration>24</duration>
    <voice>1</voice>
    <type>half</type>
   </note>
   <note default-x="150.40" default-y="-235.00" dynamics="88.89">
    <chord/>
    <pitch>
     <step>A</step>
     <octave>4</octave>
    </pitch>
    <duration>24</duration>
    <voice>1</voice>
    <type>half</type>
   </note>
   <note default-x="137.74" default-y="-225.00" dynamics="88.89">
    <chord/>
    <pitch>
     <step>C</step>
     <octave>5</octave>
    </pitch>
    <duration>24</duration>
    <voice>1</voice>
    <type>half</type>
   </note>
   <backup>
    <duration>48</duration>
   </backup>
   <forward>
    <duration>12</duration>
    <voice>2</voice>
   </forward>
   <note default-x="62.27" default-y="-285.00" dynamics="88.89">
    <pitch>
     <step>G</step>
     <alter>-1</alter>
     <octave>4</octave>
    </pitch>
    <duration>12</duration>
    <voice>2</voice>
    <type>quarter</type>
   </note>
   <forward>
    <duration>24</duration>
    <voice>2</voice>
   </forward>
  </measure>
  <measure number="3" width="284.99">
   <note default-x="12.14" default-y="-245.00" dynamics="88.89">
    <pitch>
     <step>F</step>
     <octave>4</octave>
    </pitch>
    <duration>4</duration>
    <voice>1</voice>
    <type>eighth</type>
    <time-modification>
     <actual-notes>3</actual-notes>
     <normal-notes>2</normal-notes>
    </time-modification>
    <beam number="1">begin</beam>
    <notations>
     <tuplet type="start" bracket="no"/>
    </notations>
   </note>
   <note default-x="12.14" default-y="-235.00" dynamics="88.89">
    <chord/>
    <pitch>
     <step>A</step>
     <alter>-1</alter>
     <octave>4</octave>
    </pitch>
    <duration>4</duration>
    <voice>1</voice>
    <type>eighth</type>
    <time-modification>
     <actual-notes>3</actual-notes>
     <normal-notes>2</normal-notes>
    </time-modification>
   </note>
   <note default-x="35.62" default-y="-230.00" dynamics="88.89">
    <pitch>
     <step>B</step>
     <alter>-1</alter>
     <octave>4</octave>
    </pitch>
    <duration>4</duration>
    <voice>1</voice>
    <type>eighth</type>
    <time-modification>
     <actual-notes>3</actual-notes>
     <normal-notes>2</normal-notes>
    </time-modification>
    <beam number="1">continue</beam>
   </note>
   <note default-x="59.10" default-y="-225.00" dynamics="88.89">
    <pitch>
     <step>C</step>
     <octave>5</octave>
    </pitch>
    <duration>4</duration>
    <voice>1</voice>
    <type>eighth</type>
    <time-modification>
     <actual-notes>3</actual-notes>
     <normal-notes>2</normal-notes>
    </time-modification>
    <beam number="1">end</beam>
    <notations>
     <tuplet type="stop"/>
    </notations>
   </note>
   <note default-x="82.58" default-y="-245.00" dynamics="88.89">
    <pitch>
     <step>F</step>
     <octave>4</octave>
    </pitch>
    <duration>6</duration>
    <voice>1</voice>
    <type>eighth</type>
    <beam number="1">begin</beam>
   </note>
   <note default-x="82.58" default-y="-230.00" dynamics="88.89">
    <chord/>
    <pitch>
     <step>B</step>
     <alter>-1</alter>
     <octave>4</octave>
    </pitch>
    <duration>6</duration>
    <voice>1</voice>
    <type>eighth</type>
   </note>
   <note default-x="111.21" default-y="-235.00" dynamics="88.89">
    <pitch>
     <step>A</step>
     <alter>-1</alter>
     <octave>4</octave>
    </pitch>
    <duration>6</duration>
    <tie type="start"/>
    <voice>1</voice>
    <type>eighth</type>
    <beam number="1">end</beam>
    <notations>
     <tied type="start"/>
    </notations>
   </note>
   <note default-x="139.83" default-y="-235.00" dynamics="88.89">
    <pitch>
     <step>A</step>
     <alter>-1</alter>
     <octave>4</octave>
    </pitch>
    <duration>6</duration>
    <tie type="stop"/>
    <voice>1</voice>
    <type>eighth</type>
    <notations>
     <tied type="stop"/>
    </notations>
   </note>
   <note>
    <rest/>
    <duration>6</duration>
    <voice>1</voice>
    <type>eighth</type>
   </note>
   <note default-x="197.09" default-y="-240.00" dynamics="88.89">
    <pitch>
     <step>G</step>
     <alter>-1</alter>
     <octave>4</octave>
    </pitch>
    <duration>3</duration>
    <voice>1</voice>
    <type>16th</type>
    <beam number="1">begin</beam>
    <beam number="2">forward hook</beam>
   </note>
   <note default-x="216.91" default-y="-235.00" dynamics="88.89">
    <pitch>
     <step>A</step>
     <alter>-1</alter>
     <octave>4</octave>
    </pitch>
    <duration>9</duration>
    <voice>1</voice>
    <type>eighth</type>
    <dot/>
    <beam number="1">end</beam>
   </note>
   <backup>
    <duration>48</duration>
   </backup>
   <forward>
    <duration>24</duration>
    <voice>2</voice>
   </forward>
   <forward>
    <duration>12</duration>
    <voice>2</voice>
   </forward>
   <note default-x="197.09" default-y="-295.00" dynamics="88.89">
    <pitch>
     <step>E</step>
     <alter>-1</alter>
     <octave>4</octave>
    </pitch>
    <duration>12</duration>
    <voice>2</voice>
    <type>quarter</type>
   </note>
  </measure>
  <measure number="4" width="220.58">
   <note default-x="12.00" default-y="-240.00" dynamics="88.89">
    <pitch>
     <step>G</step>
     <alter>-1</alter>
     <octave>4</octave>
    </pitch>
    <duration>24</duration>
    <voice>1</voice>
    <type>half</type>
   </note>
   <note default-x="24.66" default-y="-235.00" dynamics="88.89">
    <chord/>
    <pitch>
     <step>A</step>
     <alter>-1</alter>
     <octave>4</octave>
    </pitch>
    <duration>24</duration>
    <voice>1</voice>
    <type>half</type>
   </note>
   <note default-x="74.02" default-y="-255.00" dynamics="88.89">
    <pitch>
     <step>D</step>
     <alter>-1</alter>
     <octave>4</octave>
    </pitch>
    <duration>12</duration>
    <voice>1</voice>
    <type>quarter</type>
   </note>
   <note default-x="85.90" default-y="-250.00" dynamics="88.89">
    <chord/>
    <pitch>
     <step>E</step>
     <alter>-1</alter>
     <octave>4</octave>
    </pitch>
    <duration>12</duration>
    <voice>1</voice>
    <type>quarter</type>
   </note>
   <note default-x="74.02" default-y="-240.00" dynamics="88.89">
    <chord/>
    <pitch>
     <step>G</step>
     <alter>-1</alter>
     <octave>4</octave>
    </pitch>
    <duration>12</duration>
    <voice>1</voice>
    <type>quarter</type>
   </note>
   <note default-x="146.50" default-y="-240.00" dynamics="88.89">
    <pitch>
     <step>G</step>
     <alter>-1</alter>
     <octave>4</octave>
    </pitch>
    <duration>12</duration>
    <voice>1</voice>
    <type>quarter</type>
   </note>
   <backup>
    <duration>48</duration>
   </backup>
   <forward>
    <duration>48</duration>
    <voice>2</voice>
   </forward>
  </measure>
  <measure number="5" width="312.80">
   <note default-x="105.45" default-y="-260.00" dynamics="88.89">
    <pitch>
     <step>C</step>
     <octave>4</octave>
    </pitch>
    <duration>12</duration>
    <voice>1</voice>
    <type>quarter</type>
   </note>
   <note default-x="172.64" default-y="-265.00" dynamics="88.89">
    <pitch>
     <step>B</step>
     <alter>-1</alter>
     <octave>3</octave>
    </pitch>
    <duration>24</duration>
    <voice>1</voice>
    <type>half</type>
   </note>
   <note default-x="172.64" default-y="-255.00" dynamics="88.89">
    <chord/>
    <pitch>
     <step>D</step>
     <alter>-1</alter>
     <octave>4</octave>
    </pitch>
    <duration>24</duration>
    <voice>1</voice>
    <type>half</type>
   </note>
   <note default-x="185.30" default-y="-250.00" dynamics="88.89">
    <chord/>
    <pitch>
     <step>E</step>
     <alter>-1</alter>
     <octave>4</octave>
    </pitch>
    <duration>24</duration>
    <voice>1</voice>
    <type>half</type>
   </note>
   <note default-x="272.15" default-y="-270.00" dynamics="88.89">
    <pitch>
     <step>A</step>
     <octave>3</octave>
    </pitch>
    <duration>12</duration>
    <voice>1</voice>
    <type>quarter</type>
    <accidental>natural</accidental>
   </note>
   <note default-x="272.15" default-y="-260.00" dynamics="88.89">
    <chord/>
    <pitch>
     <step>C</step>
     <octave>4</octave>
    </pitch>
    <duration>12</duration>
    <voice>1</voice>
    <type>quarter</type>
   </note>
   <note default-x="272.15" default-y="-250.00" dynamics="88.89">
    <chord/>
    <pitch>
     <step>E</step>
     <alter>-1</alter>
     <octave>4</octave>
    </pitch>
    <duration>12</duration>
    <voice>1</voice>
    <type>quarter</type>
   </note>
   <backup>
    <duration>48</duration>
   </backup>
   <forward>
    <duration>48</duration>
    <voice>2</voice>
   </forward>
  </measure>
  <measure number="6" width="320.91">
   <note default-x="12.14" default-y="-265.00" dynamics="88.89">
    <pitch>
     <step>B</step>
     <alter>-1</alter>
     <octave>3</octave>
    </pitch>
    <duration>4</duration>
    <voice>1</voice>
    <type>eighth</type>
    <time-modification>
     <actual-notes>3</actual-notes>
     <normal-notes>2</normal-notes>
    </time-modification>
    <notations>
     <tuplet type="start" bracket="yes"/>
    </notations>
   </note>
   <note default-x="12.14" default-y="-255.00" dynamics="88.89">
    <chord/>
    <pitch>
     <step>D</step>
     <alter>-1</alter>
     <octave>4</octave>
    </pitch>
    <duration>4</duration>
    <voice>1</voice>
    <type>eighth</type>
    <time-modification>
     <actual-notes>3</actual-notes>
     <normal-notes>2</normal-notes>
    </time-modification>
   </note>
   <note>
    <rest/>
    <duration>4</duration>
    <voice>1</voice>
    <type>eighth</type>
    <time-modification>
     <actual-notes>3</actual-notes>
     <normal-notes>2</normal-notes>
    </time-modification>
   </note>
   <note default-x="61.06" default-y="-265.00" dynamics="88.89">
    <pitch>
     <step>B</step>
     <alter>-1</alter>
     <octave>3</octave>
    </pitch>
    <duration>4</duration>
    <voice>1</voice>
    <type>eighth</type>
    <time-modification>
     <actual-notes>3</actual-notes>
     <normal-notes>2</normal-notes>
    </time-modification>
    <notations>
     <tuplet type="stop"/>
    </notations>
   </note>
   <note default-x="61.06" default-y="-255.00" dynamics="88.89">
    <chord/>
    <pitch>
     <step>D</step>
     <alter>-1</alter>
     <octave>4</octave>
    </pitch>
    <duration>4</duration>
    <voice>1</voice>
    <type>eighth</type>
    <time-modification>
     <actual-notes>3</actual-notes>
     <normal-notes>2</normal-notes>
    </time-modification>
   </note>
   <note default-x="94.34" default-y="-270.00" dynamics="88.89">
    <pitch>
     <step>A</step>
     <alter>-1</alter>
     <octave>3</octave>
    </pitch>
    <duration>12</duration>
    <voice>1</voice>
    <type>quarter</type>
   </note>
   <note default-x="164.84" default-y="-275.00" dynamics="88.89">
    <pitch>
     <step>G</step>
     <alter>-1</alter>
     <octave>3</octave>
    </pitch>
    <duration>12</duration>
    <voice>1</voice>
    <type>quarter</type>
   </note>
   <note default-x="235.34" default-y="-280.00" dynamics="88.89">
    <pitch>
     <step>F</step>
     <octave>3</octave>
    </pitch>
    <duration>4</duration>
    <voice>1</voice>
    <type>eighth</type>
    <time-modification>
     <actual-notes>3</actual-notes>
     <normal-notes>2</normal-notes>
    </time-modification>
    <notations>
     <tuplet type="start" bracket="yes"/>
    </notations>
   </note>
   <note default-x="235.34" default-y="-270.00" dynamics="88.89">
    <chord/>
    <pitch>
     <step>A</step>
     <alter>-1</alter>
     <octave>3</octave>
    </pitch>
    <duration>4</duration>
    <voice>1</voice>
    <type>eighth</type>
    <time-modification>
     <actual-notes>3</actual-notes>
     <normal-notes>2</normal-notes>
    </time-modification>
   </note>
   <note default-x="247.22" default-y="-265.00" dynamics="88.89">
    <chord/>
    <pitch>
     <step>B</step>
     <alter>-1</alter>
     <octave>3</octave>
    </pitch>
    <duration>4</duration>
    <voice>1</voice>
    <type>eighth</type>
    <time-modification>
     <actual-notes>3</actual-notes>
     <normal-notes>2</normal-notes>
    </time-modification>
   </note>
   <note>
    <rest/>
    <duration>4</duration>
    <voice>1</voice>
    <type>eighth</type>
    <time-modification>
     <actual-notes>3</actual-notes>
     <normal-notes>2</normal-notes>
    </time-modification>
   </note>
   <note default-x="286.53" default-y="-280.00" dynamics="88.89">
    <pitch>
     <step>F</step>
     <octave>3</octave>
    </pitch>
    <duration>4</duration>
    <voice>1</voice>
    <type>eighth</type>
    <time-modification>
     <actual-notes>3</actual-notes>
     <normal-notes>2</normal-notes>
    </time-modification>
    <notations>
     <tuplet type="stop"/>
    </notations>
   </note>
   <backup>
    <duration>48</duration>
   </backup>
   <note default-x="12.14" default-y="-315.00" dynamics="88.89">
    <pitch>
     <step>A</step>
     <alter>-1</alter>
     <octave>3</octave>
    </pitch>
    <duration>12</duration>
    <voice>2</voice>
    <type>quarter</type>
   </note>
   <forward>
    <duration>12</duration>
    <voice>2</voice>
   </forward>
   <forward>
    <duration>24</duration>
    <voice>2</voice>
   </forward>
  </measure>
  <measure number="7" width="130.07">
   <note default-x="12.00" default-y="-280.00" dynamics="88.89">
    <pitch>
     <step>F</step>
     <octave>3</octave>
    </pitch>
    <duration>12</duration>
    <voice>1</voice>
    <type>quarter</type>
   </note>
   <note>
    <rest/>
    <duration>12</duration>
    <voice>1</voice>
    <type>quarter</type>
   </note>
   <note>
    <rest/>
    <duration>24</duration>
    <voice>1</voice>
    <type>half</type>
   </note>
   <backup>
    <duration>48</duration>
   </backup>
   <forward>
    <duration>48</duration>
    <voice>2</voice>
   </forward>
  </measure>
  <measure number="8" width="129.14">
   <note>
    <rest/>
    <duration>48</duration>
    <voice>1</voice>
   </note>
   <backup>
    <duration>48</duration>
   </backup>
   <forward>
    <duration>48</duration>
    <voice>2</voice>
   </forward>
  </measure>
  <measure number="9" width="130.07">
   <note>
    <rest/>
    <duration>24</duration>
    <voice>1</voice>
    <type>half</type>
   </note>
   <note default-x="63.77" default-y="-330.00" dynamics="88.89">
    <pitch>
     <step>C</step>
     <octave>2</octave>
    </pitch>
    <duration>12</duration>
    <voice>1</voice>
    <type>quarter</type>
   </note>
   <note>
    <rest/>
    <duration>12</duration>
    <voice>1</voice>
    <type>quarter</type>
   </note>
   <backup>
    <duration>48</duration>
   </backup>
   <forward>
    <duration>24</duration>
    <voice>2</voice>
   </forward>
   <note default-x="63.77" default-y="-375.00" dynamics="88.89">
    <pitch>
     <step>C</step>
     <octave>2</octave>
    </pitch>
    <duration>12</duration>
    <voice>2</voice>
    <type>quarter</type>
   </note>
   <forward>
    <duration>12</duration>
    <voice>2</voice>
   </forward>
  </measure>
 </part>
</score-partwise>
